<svg width="127" height="74" viewBox="0 0 127 74" fill="none" xmlns="http://www.w3.org/2000/svg">
<path fill-rule="evenodd" clip-rule="evenodd" d="M63 0C64.3807 0 65.5 1.11929 65.5 2.5V24.5V47.4645L77.1421 35.8223C78.1184 34.846 79.7014 34.846 80.6777 35.8223C81.654 36.7986 81.654 38.3816 80.6777 39.3579L64.7678 55.2678C63.7915 56.2441 62.2085 56.2441 61.2322 55.2678L45.3223 39.3579C44.346 38.3816 44.346 36.7986 45.3223 35.8223C46.2986 34.846 47.8816 34.846 48.8579 35.8223L60.5 47.4645V24.5V2.5C60.5 1.11929 61.6193 0 63 0ZM2.5 36.5C3.88071 36.5 5 37.6193 5 39V68C5 68.1712 4.98278 68.3384 4.94999 68.5H122.05C122.017 68.3384 122 68.1712 122 68V39C122 37.6193 123.119 36.5 124.5 36.5C125.881 36.5 127 37.6193 127 39V68C127 68.1712 126.983 68.3384 126.95 68.5H127V73.5H0V68.5H0.0500094C0.0172152 68.3384 0 68.1712 0 68V39C0 37.6193 1.11929 36.5 2.5 36.5Z" fill="white"/>
</svg>
